# xmcd CD database file
#
# Track frame offsets:
#        150
#        38256
#        63002
#        79249
#        103375
#        127390
#        142926
#
# Disc length: 2139 seconds
#
# Revision: 0
# Processed by: cddbd v1.5.2PL0 Copyright (c) Steve Scherf et al.
# Submitted via: CUERipper 2.1.5
#
DISCID=5a085907
DTITLE=Esther Phillips - Performance
DYEAR=1974
DGENRE=R&B
TTITLE0=I Feel The Same
TTITLE1=Performance
TTITLE2=Doing Our Thing
TTITLE3=Disposable Society
TTITLE4=Living Alone
TTITLE5=Such A Night
TTITLE6=Can't Trust Your Neighbor With Your Baby
EXTD=
EXTT0=
EXTT1=
EXTT2=
EXTT3=
EXTT4=
EXTT5=
EXTT6=
PLAYORDER=
